<svg id="Ebene_1" data-name="Ebene 1" xmlns="http://www.w3.org/2000/svg" viewBox="0 0 450.37 439.92"><defs><style>.cls-1{font-size:26.08px;font-family:RiftSoft-Demi, Rift Soft;font-weight:300;letter-spacing:0.29em;}.cls-1,.cls-11{fill:#841537;}.cls-2{letter-spacing:0.3em;}.cls-3{letter-spacing:0.26em;}.cls-4{letter-spacing:0.26em;}.cls-5{letter-spacing:0.3em;}.cls-6{font-size:65.4px;font-family:RiftSoft-Medium, Rift Soft;font-weight:500;letter-spacing:0.3em;}.cls-12,.cls-6{fill:#241d28;}.cls-7{letter-spacing:0.29em;}.cls-8{letter-spacing:0.3em;}.cls-9{letter-spacing:0.3em;}.cls-10{letter-spacing:0.29em;}</style></defs><text class="cls-1" transform="translate(28.23 432.04)">y<tspan class="cls-2" x="18.36" y="0">our pri</tspan><tspan class="cls-3" x="141.14" y="0">v</tspan><tspan class="cls-4" x="158.69" y="0">a</tspan><tspan class="cls-5" x="176.43" y="0">te sommelier</tspan></text><text class="cls-6" transform="translate(0 390.43)">l<tspan class="cls-7" x="42.58" y="0">a</tspan><tspan x="89.28" y="0"> </tspan><tspan class="cls-8" x="119.36" y="0">t</tspan><tspan x="161.61" y="0">os</tspan><tspan class="cls-8" x="257.75" y="0">c</tspan><tspan class="cls-9" x="306.02" y="0">an</tspan><tspan class="cls-10" x="403.67" y="0">a</tspan></text><path class="cls-11" d="M838.61,424.26a43.35,43.35,0,0,0-29.2-40.93V339.42H781.1v43.91a43.34,43.34,0,0,0-29.17,40.93V577.94a3.84,3.84,0,0,0,3.84,3.84h79a3.83,3.83,0,0,0,3.83-3.84V424.43C838.59,424.37,838.61,424.33,838.61,424.26Z" transform="translate(-538.7 -280)"/><path class="cls-11" d="M805.58,302.44H784.94a3.84,3.84,0,0,0-3.84,3.84v27.39h28.31V306.28A3.83,3.83,0,0,0,805.58,302.44Z" transform="translate(-538.7 -280)"/><path class="cls-12" d="M743.12,419.19a44.54,44.54,0,0,1,22.19-38.47,3.85,3.85,0,0,0,1.07-5.73,43.14,43.14,0,0,0-19.71-14.11V317H718.36v43.9a43.35,43.35,0,0,0-29.2,40.94V577.94a3.84,3.84,0,0,0,3.84,3.84h46.29a3.83,3.83,0,0,0,3.83-3.84V419.19Z" transform="translate(-538.7 -280)"/><path class="cls-12" d="M742.81,280H722.18a3.84,3.84,0,0,0-3.84,3.84v27.4h28.3v-27.4A3.83,3.83,0,0,0,742.81,280Z" transform="translate(-538.7 -280)"/></svg>