<?xml version="1.0" encoding="utf-8"?>
<!-- Generator: Adobe Illustrator 26.0.2, SVG Export Plug-In . SVG Version: 6.00 Build 0)  -->
<svg version="1.1" id="Layer_1" xmlns="http://www.w3.org/2000/svg" xmlns:xlink="http://www.w3.org/1999/xlink" x="0px" y="0px"
	 viewBox="0 0 128 128" style="enable-background:new 0 0 128 128;" xml:space="preserve">
<style type="text/css">
	.st0{fill:#262626;}
</style>
<g id="_x31_">
	<path id="icon" class="st0" d="M83.8,53.8l-0.2-0.2c-5.6-7.1-8.8-15.9-8.8-25V6.2c0-3.4-2.8-6.2-6.2-6.2h-9.4
		c-3.4,0-6.1,2.8-6.1,6.2v22.5c0,9-3.1,17.9-8.8,25l-0.2,0.2c-6.3,7.9-9.8,17.8-9.8,28v37.7c0,3.4,2.8,6.1,6.2,6.1h46.9
		c3.4,0,6.1-2.8,6.1-6.1V81.8C93.6,71.7,90.1,61.7,83.8,53.8z M58,6.2c0-0.8,0.6-1.4,1.3-1.4h9.4c0.8,0,1.4,0.6,1.4,1.4v13H58V6.2z
		 M88.8,119.5c0,0.7-0.6,1.3-1.3,1.3H40.6c-0.8,0-1.4-0.6-1.4-1.3v-4.9h49.6C88.8,114.6,88.8,119.5,88.8,119.5z M88.8,111.4H39.2
		V88.1H52l-0.4-1.9c-0.2-0.8-0.2-1.6-0.2-2.4c0-6.9,5.6-12.6,12.6-12.6s12.6,5.6,12.6,12.6c0,0.8-0.1,1.6-0.2,2.4L76,88.1h12.9
		L88.8,111.4L88.8,111.4z M88.8,84.9h-9.1c0-0.4,0-0.8,0-1.1C79.8,75.1,72.7,68,64,68s-15.8,7.1-15.8,15.8c0,0.4,0,0.8,0,1.1h-9.1
		v-3.1c0-9,3.1-17.9,8.8-25l0.2-0.2c6.3-7.9,9.8-17.8,9.8-28V24H70v4.7c0,10.1,3.5,20.1,9.8,28l0.2,0.2c5.6,7.1,8.8,15.9,8.8,25
		L88.8,84.9L88.8,84.9z M64,93.2c-4.5,0-8.4-3.2-9.3-7.7c-0.1-0.6-0.2-1.2-0.2-1.8c0-5.2,4.3-9.5,9.5-9.5s9.5,4.3,9.5,9.5
		c0,0.6-0.1,1.2-0.2,1.8C72.4,90,68.5,93.2,64,93.2z M64,77.5c-3.5,0-6.3,2.8-6.3,6.3c0,0.4,0,0.8,0.1,1.2C58.4,87.9,61,90,64,90
		c3,0,5.6-2.1,6.2-5.1c0.1-0.4,0.1-0.8,0.1-1.2C70.3,80.3,67.5,77.5,64,77.5z M85.6,106.1H42.4v-3.2h43.2L85.6,106.1L85.6,106.1z
		 M85.6,99.7H42.4v-3.2h43.2L85.6,99.7L85.6,99.7z"/>
</g>
<g id="Layer_1_00000166670152443941091910000010292838887618578610_">
</g>
</svg>
